<svg width="181" height="39" viewBox="0 0 181 39" fill="none" xmlns="http://www.w3.org/2000/svg">
<path d="M72.6879 30.6157H57.5559L54.9559 37.9997H48.7679L61.7159 1.80774H68.5799L81.5279 37.9997H75.2879L72.6879 30.6157ZM71.0239 25.7797L65.1479 8.98374L59.2199 25.7797H71.0239Z" fill="#F67719"/>
<path d="M91.5999 32.5817L97.4799 14.7317H103.738L95.1279 37.9997H87.9879L79.4199 14.7317H85.7199L91.5999 32.5817Z" fill="#F67719"/>
<path d="M105.529 26.2818C105.529 23.9298 105.991 21.8438 106.915 20.0238C107.867 18.2038 109.141 16.8038 110.737 15.8238C112.361 14.8438 114.167 14.3538 116.155 14.3538C117.891 14.3538 119.403 14.7038 120.691 15.4038C122.007 16.1038 123.057 16.9858 123.841 18.0498V14.7318H129.763V37.9998H123.841V34.5978C123.085 35.6898 122.035 36.5998 120.691 37.3278C119.375 38.0278 117.849 38.3778 116.113 38.3778C114.153 38.3778 112.361 37.8738 110.737 36.8658C109.141 35.8578 107.867 34.4438 106.915 32.6238C105.991 30.7758 105.529 28.6618 105.529 26.2818ZM123.841 26.3658C123.841 24.9378 123.561 23.7198 123.001 22.7118C122.441 21.6758 121.685 20.8918 120.733 20.3598C119.781 19.7998 118.759 19.5198 117.667 19.5198C116.575 19.5198 115.567 19.7858 114.643 20.3178C113.719 20.8498 112.963 21.6338 112.375 22.6698C111.815 23.6778 111.535 24.8818 111.535 26.2818C111.535 27.6818 111.815 28.9138 112.375 29.9778C112.963 31.0138 113.719 31.8118 114.643 32.3718C115.595 32.9318 116.603 33.2118 117.667 33.2118C118.759 33.2118 119.781 32.9458 120.733 32.4138C121.685 31.8538 122.441 31.0698 123.001 30.0618C123.561 29.0258 123.841 27.7938 123.841 26.3658Z" fill="#F67719"/>
<path d="M141.385 6.9198V37.9998H135.505V6.9198H141.385Z" fill="#F67719"/>
<path d="M150.177 11.9598C149.141 11.9598 148.273 11.6378 147.573 10.9938C146.901 10.3218 146.565 9.49578 146.565 8.51578C146.565 7.53578 146.901 6.72378 147.573 6.07978C148.273 5.40778 149.141 5.07178 150.177 5.07178C151.213 5.07178 152.067 5.40778 152.739 6.07978C153.439 6.72378 153.789 7.53578 153.789 8.51578C153.789 9.49578 153.439 10.3218 152.739 10.9938C152.067 11.6378 151.213 11.9598 150.177 11.9598ZM153.075 14.7318V37.9998H147.195V14.7318H153.075Z" fill="#F67719"/>
<path d="M180.514 25.8618C180.514 26.7018 180.458 27.4578 180.346 28.1298H163.336C163.476 29.8098 164.064 31.1258 165.1 32.0778C166.136 33.0298 167.41 33.5058 168.922 33.5058C171.106 33.5058 172.66 32.5678 173.584 30.6918H179.926C179.254 32.9318 177.966 34.7798 176.062 36.2358C174.158 37.6638 171.82 38.3778 169.048 38.3778C166.808 38.3778 164.792 37.8878 163 36.9078C161.236 35.8998 159.85 34.4858 158.842 32.6658C157.862 30.8458 157.372 28.7458 157.372 26.3658C157.372 23.9578 157.862 21.8438 158.842 20.0238C159.822 18.2038 161.194 16.8038 162.958 15.8238C164.722 14.8438 166.752 14.3538 169.048 14.3538C171.26 14.3538 173.234 14.8298 174.97 15.7818C176.734 16.7338 178.092 18.0918 179.044 19.8558C180.024 21.5918 180.514 23.5938 180.514 25.8618ZM174.424 24.1818C174.396 22.6698 173.85 21.4658 172.786 20.5698C171.722 19.6458 170.42 19.1838 168.88 19.1838C167.424 19.1838 166.192 19.6318 165.184 20.5278C164.204 21.3958 163.602 22.6138 163.378 24.1818H174.424Z" fill="#F67719"/>
<path d="M28.9999 30.9998C28.9999 29.3429 30.3431 27.9998 31.9999 27.9998H35.9999C37.6568 27.9998 38.9999 29.3429 38.9999 30.9998V34.9998C38.9999 36.6566 37.6568 37.9998 35.9999 37.9998H31.9999C30.3431 37.9998 28.9999 36.6566 28.9999 34.9998V30.9998Z" fill="#69279C"/>
<path d="M13.9999 30.9998C13.9999 29.3429 15.3431 27.9998 16.9999 27.9998H20.9999C22.6568 27.9998 23.9999 29.3429 23.9999 30.9998V34.9998C23.9999 36.6566 22.6568 37.9998 20.9999 37.9998H16.9999C15.3431 37.9998 13.9999 36.6566 13.9999 34.9998V30.9998Z" fill="#643589"/>
<path d="M-9.15527e-05 31.0001C-9.15527e-05 29.3433 1.34305 28.0001 2.99991 28.0001H6.99991C8.65676 28.0001 9.99991 29.3433 9.99991 31.0001V35.0001C9.99991 36.657 8.65676 38.0001 6.99991 38.0001H2.99991C1.34305 38.0001 -9.15527e-05 36.657 -9.15527e-05 35.0001L-9.15527e-05 31.0001Z" fill="#F67719"/>
<path d="M28.9999 17.0001C28.9999 15.3433 30.3431 14.0001 31.9999 14.0001H35.9999C37.6568 14.0001 38.9999 15.3433 38.9999 17.0001V21.0001C38.9999 22.657 37.6568 24.0001 35.9999 24.0001H31.9999C30.3431 24.0001 28.9999 22.657 28.9999 21.0001V17.0001Z" fill="#69279C"/>
<path d="M28.9999 2.99988C28.9999 1.34302 30.3431 -0.00012207 31.9999 -0.00012207L35.9999 -0.00012207C37.6568 -0.00012207 38.9999 1.34302 38.9999 2.99988V6.99988C38.9999 8.65673 37.6568 9.99988 35.9999 9.99988H31.9999C30.3431 9.99988 28.9999 8.65673 28.9999 6.99988V2.99988Z" fill="#F67719"/>
<path d="M13.9999 16.9999C13.9999 15.343 15.3431 13.9999 16.9999 13.9999H20.9999C22.6568 13.9999 23.9999 15.343 23.9999 16.9999V20.9999C23.9999 22.6567 22.6568 23.9999 20.9999 23.9999H16.9999C15.3431 23.9999 13.9999 22.6567 13.9999 20.9999V16.9999Z" fill="#F67719"/>
</svg>
